<svg width="128" height="116" viewBox="0 0 128 116" fill="none" xmlns="http://www.w3.org/2000/svg">
<g filter="url(#filter0_d_17_2609)">
<path d="M111.825 15.6623C105.761 11.7702 97.3967 10.9918 97.5527 8.76159C97.6896 6.78479 104.297 6.5241 104.339 4.97453C104.392 2.85653 92.2272 -2.32079 81.641 1.18748C69.6322 5.16642 62.2146 19.6774 60.579 17.8961C55.7404 12.6283 49.0912 8.01214 38.3491 7.19752C28.0025 6.42636 19.4856 15.4993 16.8191 18.3378C4.36521 31.607 -0.157594 53.5762 8.39733 68.0003C21.7337 90.4946 51.035 105.954 66.4255 107.424C69.5181 107.717 80.7015 97.6233 96.3811 85.1471C115.245 70.1437 123.507 58.7753 123.993 44.1702C124.02 43.2469 124.412 23.7396 111.821 15.6586L111.825 15.6623ZM97.0886 61.545C95.2247 65.2162 91.3219 68.891 83.5125 76.2442C77.8486 81.5772 77.6317 81.465 72.5155 86.2658C68.3617 90.1615 68.2133 91.2585 66.4331 91.8341C65.2653 92.2143 61.0849 93.2135 47.4822 82.2543C38.505 75.0169 34.0165 71.4 30.399 64.655C28.2764 60.6978 24.8986 54.4017 26.1843 46.3931C26.557 44.0579 27.5727 38.3013 32.7345 33.6996C33.9366 32.628 38.0143 29.1016 44.4353 28.5766C45.9416 28.4535 52.587 27.9032 57.068 31.9147C61.5223 35.8973 60.7121 41.5706 62.6825 41.7154C65.0942 41.8928 65.193 33.3883 71.576 29.4673C77.2399 25.988 84.4369 28.2109 85.6199 28.5766C95.7991 31.7156 98.9905 42.0087 99.4242 43.4931C101.904 52.0049 98.264 59.2097 97.0886 61.5377V61.545Z" fill="url(#paint0_linear_17_2609)"/>
<path d="M111.555 16.0823L111.555 16.083C108.739 14.2759 105.409 13.1493 102.646 12.2145C102.494 12.1632 102.344 12.1125 102.196 12.0622C100.791 11.5856 99.5308 11.1454 98.6328 10.6766C98.1839 10.4422 97.7886 10.1824 97.5065 9.87952C97.2167 9.56829 97.0221 9.18259 97.0539 8.72703C97.0539 8.72692 97.0539 8.72682 97.0539 8.72671L97.5527 8.76159C97.6251 7.71627 99.5068 7.15081 101.27 6.6209C102.842 6.14869 104.319 5.7047 104.339 4.97453L111.555 16.0823ZM111.555 16.0823C117.69 20.022 120.694 26.7685 122.153 32.7177C123.609 38.6525 123.507 43.7057 123.494 44.1544C123.014 58.5284 114.907 69.7735 96.0698 84.7557L96.0698 84.7558C92.0648 87.9426 88.3707 90.9594 85.0286 93.6887C81.8035 96.3225 78.9063 98.6886 76.374 100.681C73.8048 102.703 71.6434 104.314 69.9373 105.4C69.0839 105.943 68.3574 106.346 67.7597 106.604C67.1482 106.867 66.7309 106.951 66.473 106.926C58.8835 106.201 47.7863 102.01 36.9072 95.173C26.0352 88.3403 15.4432 78.904 8.82742 67.7453L8.82738 67.7453C4.626 60.6615 3.6195 51.6923 5.22194 42.8249C6.82399 33.9596 11.027 25.2398 17.1835 18.6802L111.555 16.0823ZM66.587 92.3099C67.599 91.9826 68.152 91.4895 68.9495 90.6364C69.0984 90.4771 69.257 90.3039 69.4304 90.1147C70.1734 89.3035 71.1861 88.1981 72.8576 86.6305L72.8577 86.6304C75.3089 84.3303 76.6317 83.1616 77.973 81.9766L78.1397 81.8293C79.5442 80.5881 81.0185 79.2793 83.8553 76.6083L83.8672 76.5971C87.7618 72.9299 90.698 70.1652 92.8924 67.8584C95.0894 65.5489 96.5699 63.671 97.5344 61.7713L97.5886 61.6646V61.6567C98.8225 59.2106 102.405 51.9376 99.9042 43.3532L99.9041 43.3529C99.4691 41.8637 96.217 31.3212 85.7672 28.0988C85.1643 27.9125 83.0243 27.2513 80.3096 27.0811C77.5987 26.911 74.2671 27.2273 71.3142 29.0412C67.9843 31.0868 66.313 34.3175 65.1812 36.9295C64.9912 37.368 64.8188 37.7829 64.6574 38.1712C64.3274 38.9652 64.0438 39.6475 63.7515 40.1912C63.5368 40.5905 63.3423 40.8645 63.1592 41.0307C62.9885 41.1856 62.8525 41.2266 62.7192 41.2168C62.5266 41.2026 62.3168 41.0691 62.0579 40.4814C61.8716 40.0586 61.7112 39.5226 61.5171 38.8739C61.4451 38.6335 61.3685 38.3775 61.2842 38.106C60.6763 36.1481 59.7322 33.6261 57.4012 31.542C55.0609 29.447 52.1723 28.5567 49.7077 28.2003C47.2498 27.8449 45.1725 28.0147 44.4039 28.0775L44.3946 28.0783L44.4353 28.5766L44.3945 28.0783C37.8074 28.6168 33.6271 32.234 32.4018 33.3264C27.1048 38.0486 26.0672 43.9544 25.6906 46.3139C24.3783 54.4882 27.823 60.9103 29.9455 64.8673L29.9583 64.8913C33.6221 71.7225 38.1818 75.3986 47.0968 82.5858L47.1684 82.6435L47.1685 82.6436C53.9891 88.1388 58.4833 90.6659 61.4468 91.7653C62.9319 92.3162 64.0429 92.5124 64.8766 92.5386C65.7175 92.5649 66.2566 92.4174 66.587 92.3099ZM66.587 92.3099L66.4331 91.8341M66.587 92.3099C66.5873 92.3098 66.5876 92.3097 66.5879 92.3096L66.4331 91.8341M66.4331 91.8341C65.2653 92.2143 61.0849 93.2135 47.4822 82.2543M66.4331 91.8341C67.4905 91.4922 67.9722 90.9663 69.0595 89.7794C69.8027 88.9679 70.8289 87.8475 72.5155 86.2658C74.9722 83.9606 76.2992 82.7882 77.6421 81.6017C79.0959 80.3173 80.5682 79.0165 83.5125 76.2442L83.5127 76.2441L47.4822 82.2543M47.4822 82.2543L47.4695 82.244C38.5008 75.0135 34.0147 71.3968 30.399 64.655L47.4822 82.2543ZM103.465 4.41889C103.793 4.73643 103.839 4.9178 103.839 4.96103L17.1837 18.68L17.1842 18.6794C18.5157 17.2621 21.2784 14.3212 24.9832 11.8289C28.6919 9.33396 33.2953 7.32229 38.3117 7.69613C48.9027 8.49939 55.4399 13.0402 60.2107 18.2344C60.4179 18.46 60.6912 18.5635 60.985 18.5447C61.249 18.5278 61.5002 18.4149 61.7219 18.2794C62.1662 18.0076 62.6764 17.5277 63.2338 16.9407C63.7992 16.3453 64.449 15.6006 65.1726 14.7697L65.2443 14.6874C65.9517 13.875 66.733 12.9777 67.5894 12.0389C71.1406 8.14604 75.9239 3.60849 81.7983 1.6621L81.641 1.18748L81.7983 1.66209C86.9737 -0.0530195 92.5587 0.350618 96.8552 1.4554C99.0017 2.00734 100.806 2.72911 102.059 3.43198C102.687 3.78453 103.159 4.12247 103.465 4.41889Z" stroke="#2A9D8F"/>
</g>
<defs>
<filter id="filter0_d_17_2609" x="0" y="0" width="128" height="115.431" filterUnits="userSpaceOnUse" color-interpolation-filters="sRGB">
<feFlood flood-opacity="0" result="BackgroundImageFix"/>
<feColorMatrix in="SourceAlpha" type="matrix" values="0 0 0 0 0 0 0 0 0 0 0 0 0 0 0 0 0 0 127 0" result="hardAlpha"/>
<feOffset dy="4"/>
<feGaussianBlur stdDeviation="2"/>
<feComposite in2="hardAlpha" operator="out"/>
<feColorMatrix type="matrix" values="0 0 0 0 0 0 0 0 0 0 0 0 0 0 0 0 0 0 0.25 0"/>
<feBlend mode="normal" in2="BackgroundImageFix" result="effect1_dropShadow_17_2609"/>
<feBlend mode="normal" in="SourceGraphic" in2="effect1_dropShadow_17_2609" result="shape"/>
</filter>
<linearGradient id="paint0_linear_17_2609" x1="4.00004" y1="53.7138" x2="124.005" y2="53.7138" gradientUnits="userSpaceOnUse">
<stop stop-color="#2A9D8F"/>
<stop offset="0.72" stop-color="#2A9D8F"/>
</linearGradient>
</defs>
</svg>
